<mxfile host="app.diagrams.net" agent="Mozilla/5.0 (Windows NT 10.0; Win64; x64) AppleWebKit/537.36 (KHTML, like Gecko) Chrome/131.0.0.0 Safari/537.36" version="25.0.1">
  <diagram id="R2lEEEUBdFMjLlhIrx00" name="Page-1">
    <mxGraphModel dx="3400" dy="2026" grid="1" gridSize="10" guides="1" tooltips="1" connect="0" arrows="1" fold="1" page="0" pageScale="1" pageWidth="1100" pageHeight="850" math="0" shadow="0" extFonts="Permanent Marker^https://fonts.googleapis.com/css?family=Permanent+Marker">
      <root>
        <mxCell id="0" />
        <mxCell id="1" parent="0" />
        <mxCell id="vobfzcA1M_xKwagLtrMA-19" style="edgeStyle=orthogonalEdgeStyle;rounded=0;orthogonalLoop=1;jettySize=auto;html=1;exitX=0.5;exitY=1;exitDx=0;exitDy=0;entryX=0.5;entryY=0;entryDx=0;entryDy=0;" parent="1" source="vobfzcA1M_xKwagLtrMA-2" target="vobfzcA1M_xKwagLtrMA-18" edge="1">
          <mxGeometry relative="1" as="geometry" />
        </mxCell>
        <mxCell id="vobfzcA1M_xKwagLtrMA-2" value="User" style="swimlane;fontStyle=0;childLayout=stackLayout;horizontal=1;startSize=30;horizontalStack=0;resizeParent=1;resizeParentMax=0;resizeLast=0;collapsible=1;marginBottom=0;whiteSpace=wrap;html=1;fillColor=#008a00;fontColor=#ffffff;strokeColor=#005700;rounded=0;" parent="1" vertex="1">
          <mxGeometry x="340" y="-70" width="140" height="270" as="geometry" />
        </mxCell>
        <mxCell id="vobfzcA1M_xKwagLtrMA-3" value="UserID (PK)" style="text;strokeColor=#A50040;fillColor=#d80073;align=left;verticalAlign=middle;spacingLeft=4;spacingRight=4;overflow=hidden;points=[[0,0.5],[1,0.5]];portConstraint=eastwest;rotatable=0;whiteSpace=wrap;html=1;fontColor=#ffffff;rounded=0;" parent="vobfzcA1M_xKwagLtrMA-2" vertex="1">
          <mxGeometry y="30" width="140" height="30" as="geometry" />
        </mxCell>
        <mxCell id="DMa3tj3aKrXFKGTN9-89-2" value="UserName" style="text;strokeColor=#006EAF;fillColor=#1ba1e2;align=left;verticalAlign=middle;spacingLeft=4;spacingRight=4;overflow=hidden;points=[[0,0.5],[1,0.5]];portConstraint=eastwest;rotatable=0;whiteSpace=wrap;html=1;fontColor=#ffffff;rounded=0;" parent="vobfzcA1M_xKwagLtrMA-2" vertex="1">
          <mxGeometry y="60" width="140" height="30" as="geometry" />
        </mxCell>
        <mxCell id="DMa3tj3aKrXFKGTN9-89-1" value="Name" style="text;strokeColor=#006EAF;fillColor=#1ba1e2;align=left;verticalAlign=middle;spacingLeft=4;spacingRight=4;overflow=hidden;points=[[0,0.5],[1,0.5]];portConstraint=eastwest;rotatable=0;whiteSpace=wrap;html=1;fontColor=#ffffff;rounded=0;" parent="vobfzcA1M_xKwagLtrMA-2" vertex="1">
          <mxGeometry y="90" width="140" height="30" as="geometry" />
        </mxCell>
        <mxCell id="vobfzcA1M_xKwagLtrMA-4" value="Phone Number" style="text;strokeColor=#006EAF;fillColor=#1ba1e2;align=left;verticalAlign=middle;spacingLeft=4;spacingRight=4;overflow=hidden;points=[[0,0.5],[1,0.5]];portConstraint=eastwest;rotatable=0;whiteSpace=wrap;html=1;fontColor=#ffffff;rounded=0;" parent="vobfzcA1M_xKwagLtrMA-2" vertex="1">
          <mxGeometry y="120" width="140" height="30" as="geometry" />
        </mxCell>
        <mxCell id="vobfzcA1M_xKwagLtrMA-5" value="Email" style="text;strokeColor=#006EAF;fillColor=#1ba1e2;align=left;verticalAlign=middle;spacingLeft=4;spacingRight=4;overflow=hidden;points=[[0,0.5],[1,0.5]];portConstraint=eastwest;rotatable=0;whiteSpace=wrap;html=1;fontColor=#ffffff;rounded=0;" parent="vobfzcA1M_xKwagLtrMA-2" vertex="1">
          <mxGeometry y="150" width="140" height="30" as="geometry" />
        </mxCell>
        <mxCell id="vobfzcA1M_xKwagLtrMA-6" value="Gender" style="text;strokeColor=#006EAF;fillColor=#1ba1e2;align=left;verticalAlign=middle;spacingLeft=4;spacingRight=4;overflow=hidden;points=[[0,0.5],[1,0.5]];portConstraint=eastwest;rotatable=0;whiteSpace=wrap;html=1;fontColor=#ffffff;rounded=0;" parent="vobfzcA1M_xKwagLtrMA-2" vertex="1">
          <mxGeometry y="180" width="140" height="30" as="geometry" />
        </mxCell>
        <mxCell id="YtXes6PovOlaYRFgUBsl-1" value="Address" style="text;strokeColor=#006EAF;fillColor=#1ba1e2;align=left;verticalAlign=middle;spacingLeft=4;spacingRight=4;overflow=hidden;points=[[0,0.5],[1,0.5]];portConstraint=eastwest;rotatable=0;whiteSpace=wrap;html=1;fontColor=#ffffff;rounded=0;" parent="vobfzcA1M_xKwagLtrMA-2" vertex="1">
          <mxGeometry y="210" width="140" height="30" as="geometry" />
        </mxCell>
        <mxCell id="YtXes6PovOlaYRFgUBsl-3" value="Password" style="text;strokeColor=#006EAF;fillColor=#1ba1e2;align=left;verticalAlign=middle;spacingLeft=4;spacingRight=4;overflow=hidden;points=[[0,0.5],[1,0.5]];portConstraint=eastwest;rotatable=0;whiteSpace=wrap;html=1;fontColor=#ffffff;rounded=0;" parent="vobfzcA1M_xKwagLtrMA-2" vertex="1">
          <mxGeometry y="240" width="140" height="30" as="geometry" />
        </mxCell>
        <mxCell id="vobfzcA1M_xKwagLtrMA-7" value="Employee" style="swimlane;fontStyle=0;childLayout=stackLayout;horizontal=1;startSize=30;horizontalStack=0;resizeParent=1;resizeParentMax=0;resizeLast=0;collapsible=1;marginBottom=0;whiteSpace=wrap;html=1;fillColor=#60a917;fontColor=#ffffff;strokeColor=#2D7600;rounded=0;" parent="1" vertex="1">
          <mxGeometry y="375" width="140" height="210" as="geometry" />
        </mxCell>
        <mxCell id="vobfzcA1M_xKwagLtrMA-8" value="EmployeeID (PK)" style="text;strokeColor=#A50040;fillColor=#d80073;align=left;verticalAlign=middle;spacingLeft=4;spacingRight=4;overflow=hidden;points=[[0,0.5],[1,0.5]];portConstraint=eastwest;rotatable=0;whiteSpace=wrap;html=1;fontColor=#ffffff;rounded=0;" parent="vobfzcA1M_xKwagLtrMA-7" vertex="1">
          <mxGeometry y="30" width="140" height="30" as="geometry" />
        </mxCell>
        <mxCell id="vobfzcA1M_xKwagLtrMA-15" value="BranchID (FK)" style="text;strokeColor=#B09500;fillColor=#e3c800;align=left;verticalAlign=middle;spacingLeft=4;spacingRight=4;overflow=hidden;points=[[0,0.5],[1,0.5]];portConstraint=eastwest;rotatable=0;whiteSpace=wrap;html=1;fontColor=#000000;rounded=0;" parent="vobfzcA1M_xKwagLtrMA-7" vertex="1">
          <mxGeometry y="60" width="140" height="30" as="geometry" />
        </mxCell>
        <mxCell id="DMa3tj3aKrXFKGTN9-89-3" value="UserName (FK)" style="text;strokeColor=#B09500;fillColor=#e3c800;align=left;verticalAlign=middle;spacingLeft=4;spacingRight=4;overflow=hidden;points=[[0,0.5],[1,0.5]];portConstraint=eastwest;rotatable=0;whiteSpace=wrap;html=1;fontColor=#000000;rounded=0;" parent="vobfzcA1M_xKwagLtrMA-7" vertex="1">
          <mxGeometry y="90" width="140" height="30" as="geometry" />
        </mxCell>
        <mxCell id="vobfzcA1M_xKwagLtrMA-9" value="Designation" style="text;strokeColor=#006EAF;fillColor=#1ba1e2;align=left;verticalAlign=middle;spacingLeft=4;spacingRight=4;overflow=hidden;points=[[0,0.5],[1,0.5]];portConstraint=eastwest;rotatable=0;whiteSpace=wrap;html=1;fontColor=#ffffff;rounded=0;" parent="vobfzcA1M_xKwagLtrMA-7" vertex="1">
          <mxGeometry y="120" width="140" height="30" as="geometry" />
        </mxCell>
        <mxCell id="vobfzcA1M_xKwagLtrMA-10" value="HireDate" style="text;strokeColor=#006EAF;fillColor=#1ba1e2;align=left;verticalAlign=middle;spacingLeft=4;spacingRight=4;overflow=hidden;points=[[0,0.5],[1,0.5]];portConstraint=eastwest;rotatable=0;whiteSpace=wrap;html=1;fontColor=#ffffff;rounded=0;" parent="vobfzcA1M_xKwagLtrMA-7" vertex="1">
          <mxGeometry y="150" width="140" height="30" as="geometry" />
        </mxCell>
        <mxCell id="vobfzcA1M_xKwagLtrMA-57" value="Salary" style="text;strokeColor=#006EAF;fillColor=#1ba1e2;align=left;verticalAlign=middle;spacingLeft=4;spacingRight=4;overflow=hidden;points=[[0,0.5],[1,0.5]];portConstraint=eastwest;rotatable=0;whiteSpace=wrap;html=1;fontColor=#ffffff;rounded=0;" parent="vobfzcA1M_xKwagLtrMA-7" vertex="1">
          <mxGeometry y="180" width="140" height="30" as="geometry" />
        </mxCell>
        <mxCell id="vobfzcA1M_xKwagLtrMA-84" style="edgeStyle=orthogonalEdgeStyle;rounded=0;orthogonalLoop=1;jettySize=auto;html=1;exitX=0;exitY=0.5;exitDx=0;exitDy=0;entryX=0.5;entryY=0;entryDx=0;entryDy=0;startArrow=ERmandOne;startFill=0;endArrow=ERoneToMany;endFill=0;targetPerimeterSpacing=1;sourcePerimeterSpacing=1;startSize=7;endSize=7;" parent="1" source="V1dXFdlCHhWKnyKbpu39-2" target="vobfzcA1M_xKwagLtrMA-26" edge="1">
          <mxGeometry relative="1" as="geometry" />
        </mxCell>
        <mxCell id="vobfzcA1M_xKwagLtrMA-11" value="Customer" style="swimlane;fontStyle=0;childLayout=stackLayout;horizontal=1;startSize=30;horizontalStack=0;resizeParent=1;resizeParentMax=0;resizeLast=0;collapsible=1;marginBottom=0;whiteSpace=wrap;html=1;fillColor=#008a00;fontColor=#ffffff;strokeColor=#005700;rounded=0;" parent="1" vertex="1">
          <mxGeometry x="730" y="345" width="140" height="90" as="geometry" />
        </mxCell>
        <mxCell id="vobfzcA1M_xKwagLtrMA-12" value="UserName (PK)" style="text;strokeColor=#A50040;fillColor=#d80073;align=left;verticalAlign=middle;spacingLeft=4;spacingRight=4;overflow=hidden;points=[[0,0.5],[1,0.5]];portConstraint=eastwest;rotatable=0;whiteSpace=wrap;html=1;fontColor=#ffffff;rounded=0;" parent="vobfzcA1M_xKwagLtrMA-11" vertex="1">
          <mxGeometry y="30" width="140" height="30" as="geometry" />
        </mxCell>
        <mxCell id="YtXes6PovOlaYRFgUBsl-4" value="NumberofOrders" style="text;strokeColor=#006EAF;fillColor=#1ba1e2;align=left;verticalAlign=middle;spacingLeft=4;spacingRight=4;overflow=hidden;points=[[0,0.5],[1,0.5]];portConstraint=eastwest;rotatable=0;whiteSpace=wrap;html=1;fontColor=#ffffff;rounded=0;" parent="vobfzcA1M_xKwagLtrMA-11" vertex="1">
          <mxGeometry y="60" width="140" height="30" as="geometry" />
        </mxCell>
        <mxCell id="vobfzcA1M_xKwagLtrMA-20" style="edgeStyle=orthogonalEdgeStyle;rounded=0;orthogonalLoop=1;jettySize=auto;html=1;exitX=0;exitY=0.5;exitDx=0;exitDy=0;entryX=0.5;entryY=0;entryDx=0;entryDy=0;" parent="1" source="vobfzcA1M_xKwagLtrMA-18" target="vobfzcA1M_xKwagLtrMA-7" edge="1">
          <mxGeometry relative="1" as="geometry" />
        </mxCell>
        <mxCell id="vobfzcA1M_xKwagLtrMA-21" style="edgeStyle=orthogonalEdgeStyle;rounded=0;orthogonalLoop=1;jettySize=auto;html=1;exitX=1;exitY=0.5;exitDx=0;exitDy=0;entryX=0.5;entryY=0;entryDx=0;entryDy=0;" parent="1" source="vobfzcA1M_xKwagLtrMA-18" target="vobfzcA1M_xKwagLtrMA-11" edge="1">
          <mxGeometry relative="1" as="geometry" />
        </mxCell>
        <mxCell id="vobfzcA1M_xKwagLtrMA-18" value="Inheritance" style="shape=rhombus;perimeter=rhombusPerimeter;whiteSpace=wrap;html=1;align=center;rounded=0;" parent="1" vertex="1">
          <mxGeometry x="350" y="280" width="120" height="60" as="geometry" />
        </mxCell>
        <mxCell id="vobfzcA1M_xKwagLtrMA-79" style="edgeStyle=orthogonalEdgeStyle;rounded=0;orthogonalLoop=1;jettySize=auto;html=1;exitX=1;exitY=0.75;exitDx=0;exitDy=0;entryX=0.5;entryY=0;entryDx=0;entryDy=0;startArrow=ERmandOne;startFill=0;endArrow=ERmandOne;endFill=0;strokeWidth=2;endSize=7;startSize=7;sourcePerimeterSpacing=1;targetPerimeterSpacing=1;" parent="1" source="vobfzcA1M_xKwagLtrMA-26" target="vobfzcA1M_xKwagLtrMA-39" edge="1">
          <mxGeometry relative="1" as="geometry" />
        </mxCell>
        <mxCell id="V1dXFdlCHhWKnyKbpu39-13" value="&lt;b&gt;One Order can have One Transaction for its payment&lt;/b&gt;" style="edgeLabel;html=1;align=center;verticalAlign=middle;resizable=0;points=[];fontFamily=Helvetica;fontSize=12;autosize=1;fillColor=#bac8d3;strokeColor=#23445d;labelBackgroundColor=none;fontColor=#000000;" parent="vobfzcA1M_xKwagLtrMA-79" vertex="1" connectable="0">
          <mxGeometry x="0.6504" y="-4" width="320" height="30" relative="1" as="geometry">
            <mxPoint x="-160" y="-15" as="offset" />
          </mxGeometry>
        </mxCell>
        <mxCell id="vobfzcA1M_xKwagLtrMA-81" style="rounded=0;orthogonalLoop=1;jettySize=auto;html=1;exitX=1;exitY=0.25;exitDx=0;exitDy=0;startArrow=ERmandOne;startFill=0;endArrow=ERmandOne;endFill=0;targetPerimeterSpacing=1;sourcePerimeterSpacing=1;startSize=7;endSize=7;entryX=0;entryY=0.833;entryDx=0;entryDy=0;entryPerimeter=0;edgeStyle=orthogonalEdgeStyle;" parent="1" source="vobfzcA1M_xKwagLtrMA-26" target="vobfzcA1M_xKwagLtrMA-64" edge="1">
          <mxGeometry relative="1" as="geometry">
            <mxPoint x="660" y="690" as="targetPoint" />
            <Array as="points">
              <mxPoint x="640" y="660" />
              <mxPoint x="640" y="725" />
            </Array>
          </mxGeometry>
        </mxCell>
        <mxCell id="V1dXFdlCHhWKnyKbpu39-9" value="&lt;b&gt;One O&lt;/b&gt;&lt;b&gt;rder can have One Review&lt;/b&gt;" style="edgeLabel;html=1;align=center;verticalAlign=middle;resizable=0;points=[];fontFamily=Helvetica;fontSize=12;autosize=1;fillColor=#bac8d3;labelBorderColor=none;textShadow=1;strokeColor=#23445d;labelBackgroundColor=none;fontColor=#000000;" parent="vobfzcA1M_xKwagLtrMA-81" vertex="1" connectable="0">
          <mxGeometry x="-0.4606" y="1" width="210" height="30" relative="1" as="geometry">
            <mxPoint x="-75" y="-15" as="offset" />
          </mxGeometry>
        </mxCell>
        <mxCell id="vobfzcA1M_xKwagLtrMA-26" value="Orders" style="swimlane;fontStyle=0;childLayout=stackLayout;horizontal=1;startSize=30;horizontalStack=0;resizeParent=1;resizeParentMax=0;resizeLast=0;collapsible=1;marginBottom=0;whiteSpace=wrap;html=1;fillColor=#008a00;fontColor=#ffffff;strokeColor=#005700;" parent="1" vertex="1">
          <mxGeometry x="230" y="600" width="140" height="240" as="geometry" />
        </mxCell>
        <mxCell id="vobfzcA1M_xKwagLtrMA-27" value="OrderID (PK)" style="text;strokeColor=#A50040;fillColor=#d80073;align=left;verticalAlign=middle;spacingLeft=4;spacingRight=4;overflow=hidden;points=[[0,0.5],[1,0.5]];portConstraint=eastwest;rotatable=0;whiteSpace=wrap;html=1;fontColor=#ffffff;" parent="vobfzcA1M_xKwagLtrMA-26" vertex="1">
          <mxGeometry y="30" width="140" height="30" as="geometry" />
        </mxCell>
        <mxCell id="vobfzcA1M_xKwagLtrMA-28" value="UserName (FK)" style="text;strokeColor=#B09500;fillColor=#e3c800;align=left;verticalAlign=middle;spacingLeft=4;spacingRight=4;overflow=hidden;points=[[0,0.5],[1,0.5]];portConstraint=eastwest;rotatable=0;whiteSpace=wrap;html=1;fontColor=#000000;" parent="vobfzcA1M_xKwagLtrMA-26" vertex="1">
          <mxGeometry y="60" width="140" height="30" as="geometry" />
        </mxCell>
        <mxCell id="vobfzcA1M_xKwagLtrMA-29" value="EmployeeID (FK)" style="text;strokeColor=#B09500;fillColor=#e3c800;align=left;verticalAlign=middle;spacingLeft=4;spacingRight=4;overflow=hidden;points=[[0,0.5],[1,0.5]];portConstraint=eastwest;rotatable=0;whiteSpace=wrap;html=1;fontColor=#000000;" parent="vobfzcA1M_xKwagLtrMA-26" vertex="1">
          <mxGeometry y="90" width="140" height="30" as="geometry" />
        </mxCell>
        <mxCell id="vobfzcA1M_xKwagLtrMA-58" value="BranchID (FK)" style="text;strokeColor=#B09500;fillColor=#e3c800;align=left;verticalAlign=middle;spacingLeft=4;spacingRight=4;overflow=hidden;points=[[0,0.5],[1,0.5]];portConstraint=eastwest;rotatable=0;whiteSpace=wrap;html=1;fontColor=#000000;" parent="vobfzcA1M_xKwagLtrMA-26" vertex="1">
          <mxGeometry y="120" width="140" height="30" as="geometry" />
        </mxCell>
        <mxCell id="YtXes6PovOlaYRFgUBsl-2" value="TransactionID (FK)" style="text;strokeColor=#B09500;fillColor=#e3c800;align=left;verticalAlign=middle;spacingLeft=4;spacingRight=4;overflow=hidden;points=[[0,0.5],[1,0.5]];portConstraint=eastwest;rotatable=0;whiteSpace=wrap;html=1;fontColor=#000000;" parent="vobfzcA1M_xKwagLtrMA-26" vertex="1">
          <mxGeometry y="150" width="140" height="30" as="geometry" />
        </mxCell>
        <mxCell id="vobfzcA1M_xKwagLtrMA-30" value="OrderDate" style="text;strokeColor=#006EAF;fillColor=#1ba1e2;align=left;verticalAlign=middle;spacingLeft=4;spacingRight=4;overflow=hidden;points=[[0,0.5],[1,0.5]];portConstraint=eastwest;rotatable=0;whiteSpace=wrap;html=1;fontColor=#ffffff;" parent="vobfzcA1M_xKwagLtrMA-26" vertex="1">
          <mxGeometry y="180" width="140" height="30" as="geometry" />
        </mxCell>
        <mxCell id="vobfzcA1M_xKwagLtrMA-31" value="OrderTime" style="text;strokeColor=#006EAF;fillColor=#1ba1e2;align=left;verticalAlign=middle;spacingLeft=4;spacingRight=4;overflow=hidden;points=[[0,0.5],[1,0.5]];portConstraint=eastwest;rotatable=0;whiteSpace=wrap;html=1;fontColor=#ffffff;" parent="vobfzcA1M_xKwagLtrMA-26" vertex="1">
          <mxGeometry y="210" width="140" height="30" as="geometry" />
        </mxCell>
        <mxCell id="vobfzcA1M_xKwagLtrMA-33" value="Menu" style="swimlane;fontStyle=0;childLayout=stackLayout;horizontal=1;startSize=30;horizontalStack=0;resizeParent=1;resizeParentMax=0;resizeLast=0;collapsible=1;marginBottom=0;whiteSpace=wrap;html=1;fillColor=#008a00;fontColor=#ffffff;strokeColor=#005700;" parent="1" vertex="1">
          <mxGeometry x="-180" y="895" width="140" height="180" as="geometry" />
        </mxCell>
        <mxCell id="vobfzcA1M_xKwagLtrMA-34" value="ItemID (PK)" style="text;strokeColor=#A50040;fillColor=#d80073;align=left;verticalAlign=middle;spacingLeft=4;spacingRight=4;overflow=hidden;points=[[0,0.5],[1,0.5]];portConstraint=eastwest;rotatable=0;whiteSpace=wrap;html=1;fontColor=#ffffff;" parent="vobfzcA1M_xKwagLtrMA-33" vertex="1">
          <mxGeometry y="30" width="140" height="30" as="geometry" />
        </mxCell>
        <mxCell id="vobfzcA1M_xKwagLtrMA-35" value="Category" style="text;strokeColor=#006EAF;fillColor=#1ba1e2;align=left;verticalAlign=middle;spacingLeft=4;spacingRight=4;overflow=hidden;points=[[0,0.5],[1,0.5]];portConstraint=eastwest;rotatable=0;whiteSpace=wrap;html=1;fontColor=#ffffff;" parent="vobfzcA1M_xKwagLtrMA-33" vertex="1">
          <mxGeometry y="60" width="140" height="30" as="geometry" />
        </mxCell>
        <mxCell id="vobfzcA1M_xKwagLtrMA-36" value="Size" style="text;strokeColor=#006EAF;fillColor=#1ba1e2;align=left;verticalAlign=middle;spacingLeft=4;spacingRight=4;overflow=hidden;points=[[0,0.5],[1,0.5]];portConstraint=eastwest;rotatable=0;whiteSpace=wrap;html=1;fontColor=#ffffff;" parent="vobfzcA1M_xKwagLtrMA-33" vertex="1">
          <mxGeometry y="90" width="140" height="30" as="geometry" />
        </mxCell>
        <mxCell id="vobfzcA1M_xKwagLtrMA-37" value="Price" style="text;strokeColor=#006EAF;fillColor=#1ba1e2;align=left;verticalAlign=middle;spacingLeft=4;spacingRight=4;overflow=hidden;points=[[0,0.5],[1,0.5]];portConstraint=eastwest;rotatable=0;whiteSpace=wrap;html=1;fontColor=#ffffff;" parent="vobfzcA1M_xKwagLtrMA-33" vertex="1">
          <mxGeometry y="120" width="140" height="30" as="geometry" />
        </mxCell>
        <mxCell id="vobfzcA1M_xKwagLtrMA-60" value="AvailabilityStatus" style="text;strokeColor=#006EAF;fillColor=#1ba1e2;align=left;verticalAlign=middle;spacingLeft=4;spacingRight=4;overflow=hidden;points=[[0,0.5],[1,0.5]];portConstraint=eastwest;rotatable=0;whiteSpace=wrap;html=1;fontColor=#ffffff;" parent="vobfzcA1M_xKwagLtrMA-33" vertex="1">
          <mxGeometry y="150" width="140" height="30" as="geometry" />
        </mxCell>
        <mxCell id="vobfzcA1M_xKwagLtrMA-39" value="Transaction" style="swimlane;fontStyle=0;childLayout=stackLayout;horizontal=1;startSize=30;horizontalStack=0;resizeParent=1;resizeParentMax=0;resizeLast=0;collapsible=1;marginBottom=0;whiteSpace=wrap;html=1;fillColor=#008a00;fontColor=#ffffff;strokeColor=#005700;" parent="1" vertex="1">
          <mxGeometry x="570" y="960" width="140" height="150" as="geometry" />
        </mxCell>
        <mxCell id="vobfzcA1M_xKwagLtrMA-40" value="TransactionID (PK)" style="text;strokeColor=#A50040;fillColor=#d80073;align=left;verticalAlign=middle;spacingLeft=4;spacingRight=4;overflow=hidden;points=[[0,0.5],[1,0.5]];portConstraint=eastwest;rotatable=0;whiteSpace=wrap;html=1;fontColor=#ffffff;" parent="vobfzcA1M_xKwagLtrMA-39" vertex="1">
          <mxGeometry y="30" width="140" height="30" as="geometry" />
        </mxCell>
        <mxCell id="vobfzcA1M_xKwagLtrMA-41" value="OrderID (FK)" style="text;strokeColor=#B09500;fillColor=#e3c800;align=left;verticalAlign=middle;spacingLeft=4;spacingRight=4;overflow=hidden;points=[[0,0.5],[1,0.5]];portConstraint=eastwest;rotatable=0;whiteSpace=wrap;html=1;fontColor=#000000;" parent="vobfzcA1M_xKwagLtrMA-39" vertex="1">
          <mxGeometry y="60" width="140" height="30" as="geometry" />
        </mxCell>
        <mxCell id="vobfzcA1M_xKwagLtrMA-43" value="PaymentMethod" style="text;strokeColor=#006EAF;fillColor=#1ba1e2;align=left;verticalAlign=middle;spacingLeft=4;spacingRight=4;overflow=hidden;points=[[0,0.5],[1,0.5]];portConstraint=eastwest;rotatable=0;whiteSpace=wrap;html=1;fontColor=#ffffff;" parent="vobfzcA1M_xKwagLtrMA-39" vertex="1">
          <mxGeometry y="90" width="140" height="30" as="geometry" />
        </mxCell>
        <mxCell id="V1dXFdlCHhWKnyKbpu39-1" value="PaidAmount" style="text;strokeColor=#006EAF;fillColor=#1ba1e2;align=left;verticalAlign=middle;spacingLeft=4;spacingRight=4;overflow=hidden;points=[[0,0.5],[1,0.5]];portConstraint=eastwest;rotatable=0;whiteSpace=wrap;html=1;fontColor=#ffffff;" parent="vobfzcA1M_xKwagLtrMA-39" vertex="1">
          <mxGeometry y="120" width="140" height="30" as="geometry" />
        </mxCell>
        <mxCell id="vobfzcA1M_xKwagLtrMA-45" value="Delivery" style="swimlane;fontStyle=0;childLayout=stackLayout;horizontal=1;startSize=30;horizontalStack=0;resizeParent=1;resizeParentMax=0;resizeLast=0;collapsible=1;marginBottom=0;whiteSpace=wrap;html=1;fillColor=#008a00;fontColor=#ffffff;strokeColor=#005700;" parent="1" vertex="1">
          <mxGeometry x="220" y="980" width="140" height="210" as="geometry" />
        </mxCell>
        <mxCell id="vobfzcA1M_xKwagLtrMA-46" value="DeliveryID (PK)" style="text;strokeColor=#A50040;fillColor=#d80073;align=left;verticalAlign=middle;spacingLeft=4;spacingRight=4;overflow=hidden;points=[[0,0.5],[1,0.5]];portConstraint=eastwest;rotatable=0;whiteSpace=wrap;html=1;fontColor=#ffffff;" parent="vobfzcA1M_xKwagLtrMA-45" vertex="1">
          <mxGeometry y="30" width="140" height="30" as="geometry" />
        </mxCell>
        <mxCell id="vobfzcA1M_xKwagLtrMA-47" value="OrderID (FK)" style="text;strokeColor=#B09500;fillColor=#e3c800;align=left;verticalAlign=middle;spacingLeft=4;spacingRight=4;overflow=hidden;points=[[0,0.5],[1,0.5]];portConstraint=eastwest;rotatable=0;whiteSpace=wrap;html=1;fontColor=#000000;" parent="vobfzcA1M_xKwagLtrMA-45" vertex="1">
          <mxGeometry y="60" width="140" height="30" as="geometry" />
        </mxCell>
        <mxCell id="vobfzcA1M_xKwagLtrMA-59" value="Branch&lt;span style=&quot;background-color: initial;&quot;&gt;ID (FK)&lt;/span&gt;" style="text;strokeColor=#B09500;fillColor=#e3c800;align=left;verticalAlign=middle;spacingLeft=4;spacingRight=4;overflow=hidden;points=[[0,0.5],[1,0.5]];portConstraint=eastwest;rotatable=0;whiteSpace=wrap;html=1;fontColor=#000000;" parent="vobfzcA1M_xKwagLtrMA-45" vertex="1">
          <mxGeometry y="90" width="140" height="30" as="geometry" />
        </mxCell>
        <mxCell id="vobfzcA1M_xKwagLtrMA-48" value="DeliveryAddress" style="text;strokeColor=#006EAF;fillColor=#1ba1e2;align=left;verticalAlign=middle;spacingLeft=4;spacingRight=4;overflow=hidden;points=[[0,0.5],[1,0.5]];portConstraint=eastwest;rotatable=0;whiteSpace=wrap;html=1;fontColor=#ffffff;" parent="vobfzcA1M_xKwagLtrMA-45" vertex="1">
          <mxGeometry y="120" width="140" height="30" as="geometry" />
        </mxCell>
        <mxCell id="vobfzcA1M_xKwagLtrMA-49" value="DeliveryStatus" style="text;strokeColor=#006EAF;fillColor=#1ba1e2;align=left;verticalAlign=middle;spacingLeft=4;spacingRight=4;overflow=hidden;points=[[0,0.5],[1,0.5]];portConstraint=eastwest;rotatable=0;whiteSpace=wrap;html=1;fontColor=#ffffff;" parent="vobfzcA1M_xKwagLtrMA-45" vertex="1">
          <mxGeometry y="150" width="140" height="30" as="geometry" />
        </mxCell>
        <mxCell id="vobfzcA1M_xKwagLtrMA-50" value="DeliveryTime" style="text;strokeColor=#006EAF;fillColor=#1ba1e2;align=left;verticalAlign=middle;spacingLeft=4;spacingRight=4;overflow=hidden;points=[[0,0.5],[1,0.5]];portConstraint=eastwest;rotatable=0;whiteSpace=wrap;html=1;fontColor=#ffffff;" parent="vobfzcA1M_xKwagLtrMA-45" vertex="1">
          <mxGeometry y="180" width="140" height="30" as="geometry" />
        </mxCell>
        <mxCell id="vobfzcA1M_xKwagLtrMA-52" value="Branch" style="swimlane;fontStyle=0;childLayout=stackLayout;horizontal=1;startSize=30;horizontalStack=0;resizeParent=1;resizeParentMax=0;resizeLast=0;collapsible=1;marginBottom=0;whiteSpace=wrap;html=1;fillColor=#008a00;fontColor=#ffffff;strokeColor=#005700;" parent="1" vertex="1">
          <mxGeometry x="-260" y="600" width="140" height="150" as="geometry" />
        </mxCell>
        <mxCell id="vobfzcA1M_xKwagLtrMA-53" value="BranchID (PK)" style="text;strokeColor=#A50040;fillColor=#d80073;align=left;verticalAlign=middle;spacingLeft=4;spacingRight=4;overflow=hidden;points=[[0,0.5],[1,0.5]];portConstraint=eastwest;rotatable=0;whiteSpace=wrap;html=1;fontColor=#ffffff;" parent="vobfzcA1M_xKwagLtrMA-52" vertex="1">
          <mxGeometry y="30" width="140" height="30" as="geometry" />
        </mxCell>
        <mxCell id="vobfzcA1M_xKwagLtrMA-54" value="BranchName" style="text;strokeColor=#006EAF;fillColor=#1ba1e2;align=left;verticalAlign=middle;spacingLeft=4;spacingRight=4;overflow=hidden;points=[[0,0.5],[1,0.5]];portConstraint=eastwest;rotatable=0;whiteSpace=wrap;html=1;fontColor=#ffffff;" parent="vobfzcA1M_xKwagLtrMA-52" vertex="1">
          <mxGeometry y="60" width="140" height="30" as="geometry" />
        </mxCell>
        <mxCell id="vobfzcA1M_xKwagLtrMA-55" value="BranchLocation" style="text;strokeColor=#006EAF;fillColor=#1ba1e2;align=left;verticalAlign=middle;spacingLeft=4;spacingRight=4;overflow=hidden;points=[[0,0.5],[1,0.5]];portConstraint=eastwest;rotatable=0;whiteSpace=wrap;html=1;fontColor=#ffffff;" parent="vobfzcA1M_xKwagLtrMA-52" vertex="1">
          <mxGeometry y="90" width="140" height="30" as="geometry" />
        </mxCell>
        <mxCell id="vobfzcA1M_xKwagLtrMA-56" value="BranchContact" style="text;strokeColor=#006EAF;fillColor=#1ba1e2;align=left;verticalAlign=middle;spacingLeft=4;spacingRight=4;overflow=hidden;points=[[0,0.5],[1,0.5]];portConstraint=eastwest;rotatable=0;whiteSpace=wrap;html=1;fontColor=#ffffff;" parent="vobfzcA1M_xKwagLtrMA-52" vertex="1">
          <mxGeometry y="120" width="140" height="30" as="geometry" />
        </mxCell>
        <mxCell id="vobfzcA1M_xKwagLtrMA-62" value="Review" style="swimlane;fontStyle=0;childLayout=stackLayout;horizontal=1;startSize=30;horizontalStack=0;resizeParent=1;resizeParentMax=0;resizeLast=0;collapsible=1;marginBottom=0;whiteSpace=wrap;html=1;fillColor=#008a00;fontColor=#ffffff;strokeColor=#005700;" parent="1" vertex="1">
          <mxGeometry x="730" y="640" width="140" height="180" as="geometry" />
        </mxCell>
        <mxCell id="vobfzcA1M_xKwagLtrMA-63" value="ReviewID (PK)" style="text;strokeColor=#A50040;fillColor=#d80073;align=left;verticalAlign=middle;spacingLeft=4;spacingRight=4;overflow=hidden;points=[[0,0.5],[1,0.5]];portConstraint=eastwest;rotatable=0;whiteSpace=wrap;html=1;fontColor=#ffffff;" parent="vobfzcA1M_xKwagLtrMA-62" vertex="1">
          <mxGeometry y="30" width="140" height="30" as="geometry" />
        </mxCell>
        <mxCell id="vobfzcA1M_xKwagLtrMA-64" value="UserName (FK)" style="text;strokeColor=#B09500;fillColor=#e3c800;align=left;verticalAlign=middle;spacingLeft=4;spacingRight=4;overflow=hidden;points=[[0,0.5],[1,0.5]];portConstraint=eastwest;rotatable=0;whiteSpace=wrap;html=1;fontColor=#000000;" parent="vobfzcA1M_xKwagLtrMA-62" vertex="1">
          <mxGeometry y="60" width="140" height="30" as="geometry" />
        </mxCell>
        <mxCell id="vobfzcA1M_xKwagLtrMA-65" value="OrderID (FK)" style="text;strokeColor=#B09500;fillColor=#e3c800;align=left;verticalAlign=middle;spacingLeft=4;spacingRight=4;overflow=hidden;points=[[0,0.5],[1,0.5]];portConstraint=eastwest;rotatable=0;whiteSpace=wrap;html=1;fontColor=#000000;" parent="vobfzcA1M_xKwagLtrMA-62" vertex="1">
          <mxGeometry y="90" width="140" height="30" as="geometry" />
        </mxCell>
        <mxCell id="vobfzcA1M_xKwagLtrMA-66" value="Rating" style="text;strokeColor=#006EAF;fillColor=#1ba1e2;align=left;verticalAlign=middle;spacingLeft=4;spacingRight=4;overflow=hidden;points=[[0,0.5],[1,0.5]];portConstraint=eastwest;rotatable=0;whiteSpace=wrap;html=1;fontColor=#ffffff;" parent="vobfzcA1M_xKwagLtrMA-62" vertex="1">
          <mxGeometry y="120" width="140" height="30" as="geometry" />
        </mxCell>
        <mxCell id="vobfzcA1M_xKwagLtrMA-67" value="Comment" style="text;strokeColor=#006EAF;fillColor=#1ba1e2;align=left;verticalAlign=middle;spacingLeft=4;spacingRight=4;overflow=hidden;points=[[0,0.5],[1,0.5]];portConstraint=eastwest;rotatable=0;whiteSpace=wrap;html=1;fontColor=#ffffff;" parent="vobfzcA1M_xKwagLtrMA-62" vertex="1">
          <mxGeometry y="150" width="140" height="30" as="geometry" />
        </mxCell>
        <mxCell id="vobfzcA1M_xKwagLtrMA-73" value="" style="edgeStyle=orthogonalEdgeStyle;fontSize=12;html=1;endArrow=ERoneToMany;startArrow=ERmandOne;rounded=0;entryX=0;entryY=0.5;entryDx=0;entryDy=0;exitX=0.5;exitY=0;exitDx=0;exitDy=0;strokeWidth=2;targetPerimeterSpacing=1;endSize=7;startSize=7;sourcePerimeterSpacing=1;startFill=0;" parent="1" source="vobfzcA1M_xKwagLtrMA-52" target="vobfzcA1M_xKwagLtrMA-7" edge="1">
          <mxGeometry width="100" height="100" relative="1" as="geometry">
            <mxPoint x="-100" y="450" as="sourcePoint" />
            <mxPoint x="340" y="620" as="targetPoint" />
          </mxGeometry>
        </mxCell>
        <mxCell id="V1dXFdlCHhWKnyKbpu39-7" value="&lt;b&gt;One Branch can have Multiple Employee&lt;/b&gt;" style="edgeLabel;html=1;align=center;verticalAlign=middle;resizable=0;points=[];fontFamily=Helvetica;fontSize=12;autosize=1;fillColor=#bac8d3;labelBackgroundColor=none;strokeColor=#23445d;fontColor=#000000;" parent="vobfzcA1M_xKwagLtrMA-73" vertex="1" connectable="0">
          <mxGeometry x="-0.5952" y="7" width="250" height="30" relative="1" as="geometry">
            <mxPoint x="-103" y="-15" as="offset" />
          </mxGeometry>
        </mxCell>
        <mxCell id="vobfzcA1M_xKwagLtrMA-74" value="" style="endArrow=ERoneToMany;html=1;rounded=0;exitX=1;exitY=0.5;exitDx=0;exitDy=0;entryX=0;entryY=0.5;entryDx=0;entryDy=0;edgeStyle=orthogonalEdgeStyle;startArrow=ERmandOne;startFill=0;endFill=0;strokeWidth=2;endSize=7;startSize=7;targetPerimeterSpacing=1;sourcePerimeterSpacing=1;" parent="1" source="vobfzcA1M_xKwagLtrMA-52" target="vobfzcA1M_xKwagLtrMA-28" edge="1">
          <mxGeometry relative="1" as="geometry">
            <mxPoint x="140" y="640" as="sourcePoint" />
            <mxPoint x="300" y="640" as="targetPoint" />
          </mxGeometry>
        </mxCell>
        <mxCell id="V1dXFdlCHhWKnyKbpu39-8" value="&lt;b&gt;One Branch can Dispatch Multiple Orders&lt;/b&gt;" style="edgeLabel;html=1;align=center;verticalAlign=middle;resizable=0;points=[];fontFamily=Helvetica;fontSize=12;autosize=1;fillColor=#bac8d3;labelBackgroundColor=none;strokeColor=#23445d;fontColor=#000000;" parent="vobfzcA1M_xKwagLtrMA-74" vertex="1" connectable="0">
          <mxGeometry x="-0.144" y="3" width="260" height="30" relative="1" as="geometry">
            <mxPoint x="-111" y="-12" as="offset" />
          </mxGeometry>
        </mxCell>
        <mxCell id="vobfzcA1M_xKwagLtrMA-77" value="" style="fontSize=12;html=1;endArrow=ERoneToMany;startArrow=ERmandOne;rounded=0;endFill=0;strokeWidth=2;endSize=7;startSize=7;sourcePerimeterSpacing=1;targetPerimeterSpacing=1;edgeStyle=orthogonalEdgeStyle;exitX=0.017;exitY=0.84;exitDx=0;exitDy=0;exitPerimeter=0;" parent="1" source="YtXes6PovOlaYRFgUBsl-2" target="vobfzcA1M_xKwagLtrMA-33" edge="1">
          <mxGeometry width="100" height="100" relative="1" as="geometry">
            <mxPoint x="210" y="800" as="sourcePoint" />
            <mxPoint x="270" y="590" as="targetPoint" />
          </mxGeometry>
        </mxCell>
        <mxCell id="V1dXFdlCHhWKnyKbpu39-11" value="&lt;b&gt;One Order can have Multiple Items from the Menu&lt;/b&gt;" style="edgeLabel;html=1;align=center;verticalAlign=middle;resizable=0;points=[];fontFamily=Helvetica;fontSize=12;autosize=1;fillColor=#bac8d3;labelBorderColor=none;strokeColor=#23445d;labelBackgroundColor=none;fontColor=#000000;" parent="vobfzcA1M_xKwagLtrMA-77" vertex="1" connectable="0">
          <mxGeometry x="-0.2362" y="-3" width="310" height="30" relative="1" as="geometry">
            <mxPoint x="-155" y="-15" as="offset" />
          </mxGeometry>
        </mxCell>
        <mxCell id="vobfzcA1M_xKwagLtrMA-80" value="" style="endArrow=ERmandOne;html=1;rounded=0;exitX=0.5;exitY=0;exitDx=0;exitDy=0;edgeStyle=orthogonalEdgeStyle;targetPerimeterSpacing=1;sourcePerimeterSpacing=1;startSize=7;endSize=7;endFill=0;startArrow=ERmandOne;startFill=0;entryX=0.429;entryY=1;entryDx=0;entryDy=0;entryPerimeter=0;" parent="1" source="vobfzcA1M_xKwagLtrMA-45" target="vobfzcA1M_xKwagLtrMA-31" edge="1">
          <mxGeometry relative="1" as="geometry">
            <mxPoint x="350" y="640" as="sourcePoint" />
            <mxPoint x="290" y="880" as="targetPoint" />
          </mxGeometry>
        </mxCell>
        <mxCell id="V1dXFdlCHhWKnyKbpu39-12" value="&lt;b&gt;One Delivery can deliver One Order at a Time&lt;/b&gt;" style="edgeLabel;html=1;align=center;verticalAlign=middle;resizable=0;points=[];fontFamily=Helvetica;fontSize=12;autosize=1;fillColor=#bac8d3;strokeColor=#23445d;labelBackgroundColor=none;fontColor=#000000;" parent="vobfzcA1M_xKwagLtrMA-80" vertex="1" connectable="0">
          <mxGeometry x="-0.0611" y="-2" width="280" height="30" relative="1" as="geometry">
            <mxPoint x="-140" y="-15" as="offset" />
          </mxGeometry>
        </mxCell>
        <mxCell id="V1dXFdlCHhWKnyKbpu39-3" value="" style="edgeStyle=orthogonalEdgeStyle;rounded=0;orthogonalLoop=1;jettySize=auto;html=1;exitX=0;exitY=0.5;exitDx=0;exitDy=0;entryX=1;entryY=0.5;entryDx=0;entryDy=0;startArrow=ERmandOne;startFill=0;endArrow=ERoneToMany;endFill=0;targetPerimeterSpacing=1;sourcePerimeterSpacing=1;startSize=7;endSize=7;entryPerimeter=0;" parent="1" source="vobfzcA1M_xKwagLtrMA-11" target="V1dXFdlCHhWKnyKbpu39-2" edge="1">
          <mxGeometry relative="1" as="geometry">
            <mxPoint x="590" y="405" as="sourcePoint" />
            <mxPoint x="300" y="600" as="targetPoint" />
          </mxGeometry>
        </mxCell>
        <mxCell id="V1dXFdlCHhWKnyKbpu39-2" value="&lt;b&gt;One Customer have place Multipule Orders&lt;/b&gt;" style="text;html=1;align=center;verticalAlign=middle;resizable=0;points=[];autosize=1;strokeColor=#23445d;fillColor=#bac8d3;rounded=0;fontColor=#000000;labelBorderColor=none;textShadow=0;" parent="1" vertex="1">
          <mxGeometry x="375" y="375" width="270" height="30" as="geometry" />
        </mxCell>
        <mxCell id="V1dXFdlCHhWKnyKbpu39-5" value="" style="endArrow=ERmandOne;html=1;rounded=0;fontFamily=Helvetica;fontSize=12;fontColor=default;autosize=1;resizable=0;exitX=0.5;exitY=0;exitDx=0;exitDy=0;exitPerimeter=0;entryX=0.5;entryY=0.833;entryDx=0;entryDy=0;entryPerimeter=0;startArrow=ERoneToMany;startFill=0;endFill=0;" parent="1" source="vobfzcA1M_xKwagLtrMA-62" target="YtXes6PovOlaYRFgUBsl-4" edge="1">
          <mxGeometry width="50" height="50" relative="1" as="geometry">
            <mxPoint x="690" y="490" as="sourcePoint" />
            <mxPoint x="770" y="460" as="targetPoint" />
          </mxGeometry>
        </mxCell>
        <mxCell id="V1dXFdlCHhWKnyKbpu39-6" value="&lt;b&gt;One Customer can have Mutliple Reviews&lt;/b&gt;" style="edgeLabel;html=1;align=center;verticalAlign=middle;resizable=0;points=[];fontFamily=Helvetica;fontSize=12;autosize=1;fillColor=#bac8d3;labelBackgroundColor=none;textShadow=1;strokeColor=#23445d;fontColor=#000000;" parent="V1dXFdlCHhWKnyKbpu39-5" vertex="1" connectable="0">
          <mxGeometry x="0.0097" y="1" width="260" height="30" relative="1" as="geometry">
            <mxPoint x="-130" y="-15" as="offset" />
          </mxGeometry>
        </mxCell>
        <mxCell id="AN5Tk7QAlO6cr5TWyexf-1" value="Reservation Table" style="swimlane;fontStyle=0;childLayout=stackLayout;horizontal=1;startSize=30;horizontalStack=0;resizeParent=1;resizeParentMax=0;resizeLast=0;collapsible=1;marginBottom=0;whiteSpace=wrap;html=1;fillColor=#008a00;fontColor=#ffffff;strokeColor=#005700;rounded=0;" vertex="1" parent="1">
          <mxGeometry x="1000" y="-40" width="140" height="240" as="geometry" />
        </mxCell>
        <mxCell id="AN5Tk7QAlO6cr5TWyexf-2" value="ReservationID (PK)" style="text;strokeColor=#A50040;fillColor=#d80073;align=left;verticalAlign=middle;spacingLeft=4;spacingRight=4;overflow=hidden;points=[[0,0.5],[1,0.5]];portConstraint=eastwest;rotatable=0;whiteSpace=wrap;html=1;fontColor=#ffffff;rounded=0;" vertex="1" parent="AN5Tk7QAlO6cr5TWyexf-1">
          <mxGeometry y="30" width="140" height="30" as="geometry" />
        </mxCell>
        <mxCell id="AN5Tk7QAlO6cr5TWyexf-3" value="Name" style="text;strokeColor=#006EAF;fillColor=#1ba1e2;align=left;verticalAlign=middle;spacingLeft=4;spacingRight=4;overflow=hidden;points=[[0,0.5],[1,0.5]];portConstraint=eastwest;rotatable=0;whiteSpace=wrap;html=1;fontColor=#ffffff;rounded=0;" vertex="1" parent="AN5Tk7QAlO6cr5TWyexf-1">
          <mxGeometry y="60" width="140" height="30" as="geometry" />
        </mxCell>
        <mxCell id="AN5Tk7QAlO6cr5TWyexf-4" value="Phone Number" style="text;strokeColor=#006EAF;fillColor=#1ba1e2;align=left;verticalAlign=middle;spacingLeft=4;spacingRight=4;overflow=hidden;points=[[0,0.5],[1,0.5]];portConstraint=eastwest;rotatable=0;whiteSpace=wrap;html=1;fontColor=#ffffff;rounded=0;" vertex="1" parent="AN5Tk7QAlO6cr5TWyexf-1">
          <mxGeometry y="90" width="140" height="30" as="geometry" />
        </mxCell>
        <mxCell id="AN5Tk7QAlO6cr5TWyexf-5" value="Phone Number" style="text;strokeColor=#006EAF;fillColor=#1ba1e2;align=left;verticalAlign=middle;spacingLeft=4;spacingRight=4;overflow=hidden;points=[[0,0.5],[1,0.5]];portConstraint=eastwest;rotatable=0;whiteSpace=wrap;html=1;fontColor=#ffffff;rounded=0;" vertex="1" parent="AN5Tk7QAlO6cr5TWyexf-1">
          <mxGeometry y="120" width="140" height="30" as="geometry" />
        </mxCell>
        <mxCell id="AN5Tk7QAlO6cr5TWyexf-6" value="Email" style="text;strokeColor=#006EAF;fillColor=#1ba1e2;align=left;verticalAlign=middle;spacingLeft=4;spacingRight=4;overflow=hidden;points=[[0,0.5],[1,0.5]];portConstraint=eastwest;rotatable=0;whiteSpace=wrap;html=1;fontColor=#ffffff;rounded=0;" vertex="1" parent="AN5Tk7QAlO6cr5TWyexf-1">
          <mxGeometry y="150" width="140" height="30" as="geometry" />
        </mxCell>
        <mxCell id="AN5Tk7QAlO6cr5TWyexf-7" value="Number Of People" style="text;strokeColor=#006EAF;fillColor=#1ba1e2;align=left;verticalAlign=middle;spacingLeft=4;spacingRight=4;overflow=hidden;points=[[0,0.5],[1,0.5]];portConstraint=eastwest;rotatable=0;whiteSpace=wrap;html=1;fontColor=#ffffff;rounded=0;" vertex="1" parent="AN5Tk7QAlO6cr5TWyexf-1">
          <mxGeometry y="180" width="140" height="30" as="geometry" />
        </mxCell>
        <mxCell id="AN5Tk7QAlO6cr5TWyexf-8" value="Reservation Date" style="text;strokeColor=#006EAF;fillColor=#1ba1e2;align=left;verticalAlign=middle;spacingLeft=4;spacingRight=4;overflow=hidden;points=[[0,0.5],[1,0.5]];portConstraint=eastwest;rotatable=0;whiteSpace=wrap;html=1;fontColor=#ffffff;rounded=0;" vertex="1" parent="AN5Tk7QAlO6cr5TWyexf-1">
          <mxGeometry y="210" width="140" height="30" as="geometry" />
        </mxCell>
      </root>
    </mxGraphModel>
  </diagram>
</mxfile>
